<?xml version="1.0" encoding="utf-8"?>
<!-- Generator: Adobe Illustrator 21.0.2, SVG Export Plug-In . SVG Version: 6.00 Build 0)  -->
<svg version="1.1" id="Layer_1" xmlns="http://www.w3.org/2000/svg" xmlns:xlink="http://www.w3.org/1999/xlink" x="0px" y="0px"
	 viewBox="0 0 100 125" style="enable-background:new 0 0 100 125;" xml:space="preserve">
<style type="text/css">
	.st0{fill:#FF6C2C;stroke:#FFFFFF;stroke-linecap:round;stroke-miterlimit:10;}
	.st1{fill:#FFFFFF;stroke:#FF6C2C;stroke-miterlimit:10;}
</style>
<ellipse class="st0" cx="50" cy="55" rx="61.7" ry="59.3"/>
<path class="st1" d="M66.1,41.9v7.3c0,0-5.9-0.2-9.6-4.2c-2.7-2.9-3.2-6.2-3.3-7.4c2.2,0,4.3,0,6.5,0V14.2H8.1v23.3h6.5
	c0.1,0.4,8.3,29.4,15.5,36.2C35,78.4,66.1,90,66.1,90c0,1.9,0,3.9,0,5.8h25.8V41.9H66.1z"/>
<line class="st1" x1="59.2" y1="89.1" x2="39.7" y2="93"/>
<path class="st1" d="M111.7,89.1"/>
<path class="st1" d="M118.1,100.1"/>
<path class="st1" d="M122.2,94.3"/>
</svg>
