<?xml version="1.0" encoding="utf-8"?>
<!-- Generator: Adobe Illustrator 21.0.2, SVG Export Plug-In . SVG Version: 6.00 Build 0)  -->
<svg version="1.1" id="Layer_1" xmlns="http://www.w3.org/2000/svg" xmlns:xlink="http://www.w3.org/1999/xlink" x="0px" y="0px"
	 viewBox="0 0 100 125" style="enable-background:new 0 0 100 125;" xml:space="preserve">
<style type="text/css">
	.st0{fill:#FF6C2C;stroke:#FFFFFF;stroke-linecap:round;stroke-miterlimit:10;}
	.st1{fill:#FFFFFF;stroke:#FFFFFF;stroke-miterlimit:10;}
	.st2{fill:#FFFFFF;stroke:#FF6C2C;stroke-miterlimit:10;}
	.st3{fill:#FF6C2C;stroke:#FFFFFF;stroke-miterlimit:10;}
</style>
<ellipse class="st0" cx="52.5" cy="52.5" rx="61.7" ry="59.3"/>
<ellipse class="st1" cx="34.5" cy="90.6" rx="3.9" ry="4.4"/>
<ellipse class="st1" cx="70.5" cy="90.6" rx="3.9" ry="4.4"/>
<line class="st2" x1="59.2" y1="89.1" x2="39.7" y2="93"/>
<path class="st2" d="M111.7,89.1"/>
<path class="st2" d="M118.1,100.1"/>
<path class="st2" d="M122.2,94.3"/>
<path class="st2" d="M109.4,111"/>
<line class="st2" x1="83.5" y1="31.7" x2="20.2" y2="31.7"/>
<path class="st3" d="M67.6,11.8H36c-8.7,0-15.8,7.1-15.8,15.8v47.6C20.2,84,27.3,91,36,91h31.6c8.7,0,15.8-7.1,15.8-15.8V27.6
	C83.4,18.9,76.3,11.8,67.6,11.8z"/>
<path class="st1" d="M71.9,64.6H31.6c-1.3,0-2.4-1.1-2.4-2.4V25.2c0-1.3,1.1-2.4,2.4-2.4h40.3c1.3,0,2.4,1.1,2.4,2.4v36.9
	C74.4,63.5,73.3,64.6,71.9,64.6z"/>
<rect x="147.2" y="86.1" class="st1" width="41.2" height="26.5"/>
<ellipse class="st1" cx="35.1" cy="80.1" rx="5.9" ry="4"/>
<ellipse class="st1" cx="135.9" cy="110.4" rx="6.6" ry="3.6"/>
<ellipse class="st1" cx="68.5" cy="80.1" rx="5.9" ry="4"/>
</svg>
